<svg width="24" height="24" viewBox="0 0 24 24" fill="#98B8D8" xmlns="http://www.w3.org/2000/svg" aria-hidden="true">
  <path d="M12 .5C5.65.5.5 5.65.5 12.03c0 5.09 3.29 9.41 7.86 10.94.57.1.78-.25.78-.55 0-.27-.01-1-.02-1.95-3.2.7-3.88-1.54-3.88-1.54-.52-1.31-1.28-1.66-1.28-1.66-1.05-.72.08-.71.08-.71 1.16.08 1.77 1.19 1.77 1.19 1.03 1.77 2.7 1.26 3.36.96.1-.75.4-1.26.72-1.55-2.56-.29-5.25-1.28-5.25-5.71 0-1.26.45-2.3 1.18-3.11-.12-.29-.51-1.46.11-3.04 0 0 .96-.31 3.15 1.19a10.9 10.9 0 0 1 2.87-.39c.97 0 1.95.13 2.87.39 2.19-1.5 3.15-1.19 3.15-1.19.62 1.58.23 2.75.11 3.04.74.81 1.18 1.85 1.18 3.11 0 4.44-2.7 5.42-5.27 5.7.41.36.78 1.07.78 2.16 0 1.56-.01 2.82-.01 3.2 0 .3.21.66.79.55C20.21 21.43 23.5 17.1 23.5 12.03 23.5 5.65 18.35.5 12 .5z"/>
</svg>
